<svg width="501" height="419" viewBox="0 0 501 419" fill="none" xmlns="http://www.w3.org/2000/svg">
<path d="M395 0C395 0 395 0 395 0H396.739C437.205 0 461.721 46.788 441.961 82.1012C418.889 123.331 396.366 172.377 394 210C391.708 246.447 414.007 293.403 438.831 333.572C460.603 368.803 436.658 419 395.242 419V419C395.081 419 394.957 419.001 394.796 418.998C389.802 418.906 295 414.469 295 210C295 0 395 0 395 0Z" fill="white"/>
<path d="M100 0C100 0 100 0 100 0V0C59.1958 0 33.7877 47.5466 54.1303 82.9184C77.7442 123.978 100.649 172.625 103 210C105.38 247.849 82.3747 297.032 57.6155 338.177C37.3297 371.888 60.4233 419 99.7675 419V419C99.9225 419 100.034 419.001 100.189 418.998C105.002 418.915 200 414.68 200 210C200 0 100 0 100 0Z" fill="white"/>
<path d="M57.5 88.9999C57.5 88.9999 168.148 162 248 162C327.852 162 439 88.9999 439 88.9999C439 88.9999 395.132 160.352 395 211C394.868 262.015 439 334 439 334C439 334 328.135 259 248 259C167.865 259 58.5 336 58.5 336C58.5 336 102 262.465 102 211.5C102 160.535 57.5 88.9999 57.5 88.9999Z" fill="url(#paint0_linear_1_5)"/>
<defs>
<linearGradient id="paint0_linear_1_5" x1="57" y1="83.9999" x2="439" y2="83.9999" gradientUnits="userSpaceOnUse">
<stop stop-color="#E3B4FF"/>
<stop offset="0.230681" stop-color="#A0A1FF"/>
<stop offset="0.501303" stop-color="#568DFF" stop-opacity="0.45"/>
<stop offset="0.707983" stop-color="#0777FF"/>
<stop offset="1" stop-color="#479AFF"/>
</linearGradient>
</defs>
</svg>
